<?xml version="1.0" standalone="no"?><!DOCTYPE svg PUBLIC "-//W3C//DTD SVG 1.1//EN" "http://www.w3.org/Graphics/SVG/1.1/DTD/svg11.dtd"><svg t="1706788407471" class="icon" viewBox="0 0 1024 1024" version="1.1" xmlns="http://www.w3.org/2000/svg" p-id="10096" xmlns:xlink="http://www.w3.org/1999/xlink" width="128" height="128"><path d="M 857.652 152.707 c -25.492 -45.563 -63.548 -97.87 -132.121 -97.87 H 322.75 c -51.442 0 -101.104 37.109 -132.416 98.419 L 78.203 360.887 C 13.485 439.154 45.376 486.619 60.95 502.112 l 375.915 414.012 c 19.44 19.439 44.394 29.704 72.154 29.704 c 33.162 0 67.189 -14.995 94.106 -41.911 l 363.108 -382.009 c 17.812 -17.781 31.382 -68.359 31.382 -86.894 v -10.081 L 857.652 152.707 Z M 552.711 678.891 H 482.48 L 352.841 321.774 h 86.914 l 78.288 224.548 l 81.787 -224.548 h 84.229 L 552.711 678.891 Z" fill="#0085FF" p-id="10097"></path></svg>