<?xml version="1.0" standalone="no"?><!DOCTYPE svg PUBLIC "-//W3C//DTD SVG 1.1//EN" "http://www.w3.org/Graphics/SVG/1.1/DTD/svg11.dtd"><svg t="1706788328159" class="icon" viewBox="0 0 1663 1024" version="1.1" xmlns="http://www.w3.org/2000/svg" p-id="9810" xmlns:xlink="http://www.w3.org/1999/xlink" width="207.875" height="128"><path d="M185.578427 715.555857c0 35.195908 29.436578 63.864576 63.864575 63.864575h312.283697c30.076504 0 53.113826 7.295152 69.111966 21.757471a71.159728 71.159728 0 0 1 24.061203 55.033602 69.495921 69.495921 0 0 1-23.677248 54.777633c-15.870155 13.950378-39.035462 20.861575-69.367936 20.861574H113.650788c-40.315313 0-69.367936-8.958959-87.029883-26.876875C8.830973 887.05592 0 858.131282 0 818.199924V112.617948C0 75.118307 8.447018 46.961581 25.341054 28.147768A85.238091 85.238091 0 0 1 91.893317 0.119026a88.309734 88.309734 0 0 1 67.832115 27.772772c17.277991 18.557843 25.852995 46.842555 25.852995 84.72615v602.809924z m769.446551-104.563845c11.262691 69.111966 38.907477 70.391817 61.560844 3.071643L1183.606406 117.609368c10.878735-32.508221 18.941798-55.033602 24.317173-67.832115a90.357496 90.357496 0 0 1 26.876875-34.300012 78.71085 78.71085 0 0 1 51.194049-15.358215 87.413838 87.413838 0 0 1 75.895177 43.514942c7.807092 13.054482 11.646646 26.23695 11.646646 39.675387 0 9.086944-1.279851 18.941798-3.711568 29.564563-2.559702 10.622765-5.631345 21.117545-9.342914 31.22837-3.839554 10.23881-7.551122 20.73359-11.262691 31.612325L1127.420937 774.429013c-7.935078 22.909337-15.870155 44.666807-23.805232 65.272412a276.191893 276.191893 0 0 1-27.516801 54.393676 122.993702 122.993702 0 0 1-41.595165 38.395537 124.785494 124.785494 0 0 1-63.352635 14.974259 126.961241 126.961241 0 0 1-63.480621-14.590304 120.68997 120.68997 0 0 1-41.851134-38.779492 285.790777 285.790777 0 0 1-27.772772-54.649647c-7.935078-20.477619-15.870155-42.23509-23.805233-65.016441L724.139819 308.56317a1133.948179 1133.948179 0 0 0-11.518661-31.868296 247.13927 247.13927 0 0 1-9.98284-33.788072 144.111247 144.111247 0 0 1-4.095524-30.588444c0-21.24553 8.575003-40.571284 25.597025-58.105245A86.261972 86.261972 0 0 1 788.516335 128.104148c31.74031 0 54.009721 9.726869 67.192189 29.052623 13.182468 19.325753 26.620905 50.298153 40.315313 92.789213l59.001141 361.046028z m499.141975 336.60087a97.268693 97.268693 0 0 1-66.808233-25.085084c-18.813813-16.638066-28.156727-39.931358-28.156727-70.007861 0-25.341054 8.958959-47.354495 26.876875-65.656368a88.94966 88.94966 0 0 1 66.296293-27.388816c26.23695 0 48.634346 8.958959 67.192189 27.132846a88.821674 88.821674 0 0 1 27.772772 65.912338c0 29.564563-9.342914 52.857855-27.772772 69.751891a93.941079 93.941079 0 0 1-65.272412 25.213069z" fill="#0085FF" p-id="9811"></path></svg>