<?xml version="1.0" standalone="no"?><!DOCTYPE svg PUBLIC "-//W3C//DTD SVG 1.1//EN" "http://www.w3.org/Graphics/SVG/1.1/DTD/svg11.dtd"><svg t="1707028738354" class="icon" viewBox="0 0 1024 1024" version="1.1" xmlns="http://www.w3.org/2000/svg" p-id="4885" xmlns:xlink="http://www.w3.org/1999/xlink" width="128" height="128"><path d="M769.462857 769.462857H254.537143V254.537143h514.925714z m-466.163809-48.761905h417.401904V303.299048H303.299048z" fill="currentColor" p-id="4886"></path><path d="M633.051429 633.051429H390.948571V390.948571h242.102858z m-193.340953-48.761905h144.579048V439.710476H439.710476zM390.948571 170.544762h48.761905v108.373333h-48.761905zM584.289524 170.544762h48.761905v108.373333h-48.761905zM745.081905 390.948571h108.373333v48.761905h-108.373333zM745.081905 584.289524h108.373333v48.761905h-108.373333zM170.544762 390.948571h108.373333v48.761905h-108.373333zM170.544762 584.289524h108.373333v48.761905h-108.373333zM390.948571 745.081905h48.761905v108.373333h-48.761905zM584.289524 745.081905h48.761905v108.373333h-48.761905z" fill="currentColor" p-id="4887"></path></svg>
