<?xml version="1.0" standalone="no"?><!DOCTYPE svg PUBLIC "-//W3C//DTD SVG 1.1//EN" "http://www.w3.org/Graphics/SVG/1.1/DTD/svg11.dtd"><svg t="1711105647147" class="icon" viewBox="0 0 1024 1024" version="1.1" xmlns="http://www.w3.org/2000/svg" p-id="2807" xmlns:xlink="http://www.w3.org/1999/xlink" width="128" height="128"><path fill="currentColor" d="M512 865.52381a353.52381 353.52381 0 1 1 353.52381-353.52381 353.52381 353.52381 0 0 1-353.52381 353.52381z m0-658.285715a304.761905 304.761905 0 1 0 304.761905 304.761905 304.761905 304.761905 0 0 0-304.761905-304.761905z" p-id="2808"></path><path fill="currentColor" d="M486.278095 705.340952a32.182857 32.182857 0 0 1 10.118095-24.380952 34.133333 34.133333 0 0 1 24.380953-9.752381 33.158095 33.158095 0 0 1 24.380952 10.118095 32.548571 32.548571 0 0 1 10.118095 23.649524 31.939048 31.939048 0 0 1-9.874285 23.28381 31.207619 31.207619 0 0 1-22.918095 9.99619 34.620952 34.620952 0 0 1-25.84381-9.99619 31.939048 31.939048 0 0 1-10.361905-22.918096z m60.952381-384.243809l-6.095238 294.887619H498.590476l-5.851428-294.887619z" p-id="2809"></path></svg>
