<?xml version="1.0" standalone="no"?><!DOCTYPE svg PUBLIC "-//W3C//DTD SVG 1.1//EN" "http://www.w3.org/Graphics/SVG/1.1/DTD/svg11.dtd"><svg t="1708583534392" class="icon" viewBox="0 0 1024 1024" version="1.1" xmlns="http://www.w3.org/2000/svg" p-id="3618" xmlns:xlink="http://www.w3.org/1999/xlink" width="128" height="128"><path d="M489.325714 630.613333l-115.931428-115.931428 34.499047-34.499048 81.432381 81.432381 151.04-150.918095 34.499048 34.377143-185.539048 185.539047z" p-id="3619"></path><path d="M512 883.2l-10.118095-5.485714C314.270476 786.773333 219.428571 689.980952 219.428571 590.506667V244.540952l22.796191-1.462857c83.504762-5.36381 169.325714-37.546667 255.268571-95.573333l14.506667-9.874286 13.897143 10.605714c60.952381 46.445714 147.748571 77.653333 258.31619 92.769524L804.571429 243.809524v346.697143c0 108.617143-95.085714 205.531429-282.575239 288.182857zM268.190476 289.767619v300.739048c0 76.55619 85.333333 158.47619 245.272381 238.933333C674.377143 756.540952 755.809524 676.205714 755.809524 590.506667v-304.761905c-101.302857-16.091429-183.832381-45.958095-246.125714-88.990476A570.63619 570.63619 0 0 1 268.190476 289.767619z" p-id="3620" fill="currentColor"></path></svg>
