<?xml version="1.0" standalone="no"?><!DOCTYPE svg PUBLIC "-//W3C//DTD SVG 1.1//EN" "http://www.w3.org/Graphics/SVG/1.1/DTD/svg11.dtd"><svg t="1707028730325" class="icon" viewBox="0 0 1024 1024" version="1.1" xmlns="http://www.w3.org/2000/svg" p-id="4731" xmlns:xlink="http://www.w3.org/1999/xlink" width="128" height="128"><path d="M499.809524 656.822857a134.095238 134.095238 0 1 1 134.095238-134.095238 134.095238 134.095238 0 0 1-134.095238 134.095238z m0-220.403809a85.333333 85.333333 0 1 0 85.333333 85.333333 85.333333 85.333333 0 0 0-85.333333-85.333333z" fill="currentColor" p-id="4732"></path><path d="M414.47619 871.375238l-13.653333-2.438095a275.382857 275.382857 0 0 1-141.653333-78.140953l-9.508572-10.605714 11.215238-36.571428a87.527619 87.527619 0 0 0-10.24-70.948572 88.380952 88.380952 0 0 0-58.514285-43.032381l-37.546667-7.070476-4.754286-13.043809A274.407619 274.407619 0 0 1 146.285714 448.24381l4.266667-13.28762 36.571429-8.289523A87.405714 87.405714 0 0 0 243.809524 382.293333l1.462857-2.803809a87.04 87.04 0 0 0 7.192381-70.582857l-12.190476-34.986667 9.020952-10.727619a274.041905 274.041905 0 0 1 138.361905-83.504762l13.653333-2.925714L426.666667 203.946667a85.333333 85.333333 0 0 0 65.584762 26.575238h3.291428A87.405714 87.405714 0 0 0 560.761905 201.386667l24.380952-28.16 13.653333 2.31619a274.895238 274.895238 0 0 1 141.653334 78.140953l9.264762 10.361904-11.215238 36.571429a87.771429 87.771429 0 0 0 10.24 70.826667l-20.48 13.165714 20.48-13.04381 0.731428 0.975238A87.527619 87.527619 0 0 0 807.009524 414.47619l37.424762 7.070477 4.754285 13.043809a274.407619 274.407619 0 0 1 3.169524 161.645714L848.091429 609.52381l-36.571429 8.289523A87.28381 87.28381 0 0 0 755.809524 662.186667l-1.097143 2.072381a86.79619 86.79619 0 0 0-7.558095 71.314285l12.190476 35.108572-9.020952 10.605714a274.041905 274.041905 0 0 1-138.361905 83.504762l-13.653334 2.925714L572.952381 841.142857a86.186667 86.186667 0 0 0-65.584762-26.575238h-3.169524A87.04 87.04 0 0 0 438.857143 843.093333zM304.761905 768a228.327619 228.327619 0 0 0 91.428571 49.980952l5.36381-6.460952a136.533333 136.533333 0 0 1 102.034285-46.08h2.681905a135.192381 135.192381 0 0 1 102.521905 42.057143l5.973333 6.460952a229.546667 229.546667 0 0 0 88.990476-54.125714l-2.803809-7.92381a135.68 135.68 0 0 1 10.483809-109.714285l1.340953-2.194286a135.558095 135.558095 0 0 1 88.259047-68.87619l8.655239-1.950477a232.350476 232.350476 0 0 0-2.438096-104.228571l-9.142857-1.706667A136.045714 136.045714 0 0 1 707.047619 397.531429v-0.975239a136.289524 136.289524 0 0 1-15.11619-110.445714l2.803809-9.264762a229.059048 229.059048 0 0 0-91.428571-49.980952l-5.36381 6.339048a136.167619 136.167619 0 0 1-102.034286 46.08h-2.925714A134.826667 134.826667 0 0 1 390.095238 237.104762l-5.851428-6.339048a229.302857 229.302857 0 0 0-89.112381 54.125715l2.803809 7.923809a135.192381 135.192381 0 0 1-10.483809 110.32381l-1.340953 2.31619a135.801905 135.801905 0 0 1-88.259047 68.754286l-8.533334 1.950476a228.815238 228.815238 0 0 0 2.438095 104.228571l9.142858 1.706667a136.289524 136.289524 0 0 1 90.697142 64.853333l0.731429 1.219048a136.289524 136.289524 0 0 1 14.872381 109.714286z" fill="currentColor" p-id="4733"></path></svg>
